<svg version="1.1" id="Layer_1" xmlns="http://www.w3.org/2000/svg" x="0" y="0" viewBox="0 0 32 32" style="enable-background:new 0 0 32 32" xml:space="preserve">
  <style>
    .st2{fill:#fff}.st3{fill:#ebebeb}
  </style>
  <path style="fill:#1572b6" d="M5.902 28.201 3.656 3h24.688l-2.249 25.197L15.985 31z"/>
  <path style="fill:#33a9dc" d="m16 28.858 8.17-2.265 1.922-21.532H16z"/>
  <path class="st2" d="M16 14.191h4.09l.282-3.165H16V7.935h7.75l-.074.829-.759 8.518H16z"/>
  <path class="st3" d="m16.019 22.218-.014.004-3.442-.93-.22-2.465H9.24l.433 4.853 6.331 1.758.015-.004z"/>
  <path class="st2" d="m19.827 17.151-.372 4.139-3.447.93v3.216l6.336-1.756.047-.522.537-6.007z"/>
  <path class="st3" d="M16.011 7.935v3.091H8.545l-.062-.695-.141-1.567-.074-.829zM16 14.191v3.091h-3.399l-.062-.695-.14-1.567-.074-.829z"/>
</svg>
