<svg xmlns="http://www.w3.org/2000/svg" viewBox="0 0 32 32" style="enable-background:new 0 0 32 32" xml:space="preserve">
  <path d="M28 27c0 1.65-1.35 3-3 3H7c-1.65 0-3-1.35-3-3V5c0-1.65 1.35-3 3-3h18c1.65 0 3 1.35 3 3v22z" style="fill:#3ba35a"/>
  <path d="M20.772 18.759c.188.414.496.763.884 1.002.368.176.774.255 1.18.23 1.505-.233 2.155-1.972 1.432-3.833a7.68 7.68 0 0 0-1.716-2.52l-.249-.241-.03.303a5.77 5.77 0 0 1-.798 2.025c-.241.438-.455.89-.64 1.354a2.733 2.733 0 0 0-.063 1.68zm1.964-3.412.162.148c.342.316.51.777.452 1.238-.073.178-.274.366-.38.354a.436.436 0 0 1-.204-.168l.001-.001c-.097-.131-.111-.294-.075-.867l.044-.704zm-3.439-2.852-2.98 4.322-3.682-.019 2.045-2.968 2.11-3.063-.721-.494-.721-.494-3.66 5.323c-3.884 5.65-3.848 5.59-3.916 6.531l-.001.034a3.304 3.304 0 0 0 3.192 3.411l.002.002a3.336 3.336 0 0 0 2.022-.669c.378-.27.715-.734 4.08-5.607l3.668-5.312-.719-.498-.719-.499zm3.47-1.164a58.827 58.827 0 0 0-6.14-4.237.848.848 0 0 0-.828.456.739.739 0 0 0-.072.598l.065.355 2.819 1.951c1.55 1.073 2.923 1.992 3.05 2.043l-.002-.002a.862.862 0 0 0 1.108-1.164z" style="fill:#fff"/>
</svg>
