<svg xmlns="http://www.w3.org/2000/svg" xml:space="preserve" id="Layer_1" x="0" y="0" style="enable-background:new 0 0 32 32" version="1.1" viewBox="0 0 32 32">
  <style>
    .st1{fill:#fff}
  </style>
  <path d="M28 27c0 1.6-1.4 3-3 3H7c-1.7 0-3-1.4-3-3V5c0-1.7 1.3-3 3-3h18c1.6 0 3 1.3 3 3v22z" style="fill:#3ba35a"/>
  <path d="M9.8 17c-.6-.6-1.7-.6-2.3 0-.6.6-.6 1.7 0 2.3.6.6 1.7.6 2.3 0h12.4c.6.6 1.7.6 2.3 0 .6-.6.6-1.7 0-2.3-.6-.6-1.7-.6-2.3 0H9.8z" class="st1"/>
  <path d="M12.4 13c0-.9-.7-1.6-1.6-1.6s-1.6.7-1.6 1.6c0 .9.7 1.6 1.6 1.6l8.8 8.7c0 .9.7 1.6 1.6 1.6.9 0 1.6-.7 1.6-1.6 0-.9-.7-1.6-1.6-1.6L12.4 13z" class="st1"/>
  <path d="M17.2 12c.6-.6.6-1.7 0-2.3-.6-.6-1.7-.6-2.3 0-.6.6-.6 1.7 0 2.3v12.4c-.6.6-.6 1.7 0 2.3.6.6 1.7.6 2.3 0 .6-.6.6-1.7 0-2.3V12z" class="st1"/>
  <path d="M21.2 14.7c.9 0 1.6-.7 1.6-1.7 0-.9-.7-1.6-1.7-1.6-.9 0-1.6.7-1.6 1.6l-8.8 8.7c-.9 0-1.6.7-1.6 1.6s.7 1.6 1.6 1.6c.9 0 1.6-.7 1.6-1.6l8.9-8.6z" class="st1"/>
</svg>
