<svg xmlns="http://www.w3.org/2000/svg" xml:space="preserve" style="enable-background:new 0 0 32 32" viewBox="0 0 32 32">
  <path d="M28 27c0 1.6-1.4 3-3 3H7c-1.7 0-3-1.4-3-3V5c0-1.7 1.3-3 3-3h18c1.6 0 3 1.3 3 3v22z" style="fill:#755838"/>
  <path d="M14.3 21.7c0-.7-.1-1.2-.2-1.5-.1-.3-.4-.4-.7-.4-.4 0-.7.2-.9.5-.2.3-.3.8-.3 1.4v3.2h.1c.3 0 .5 0 .6.1s.2.2.2.4 0 .3-.1.4c-.1.2-.2.2-.4.2h-1c-.2 0-.4-.1-.5-.2-.1 0-.1-.3-.1-.6v-4.1c0-.4-.1-.7-.3-.9-.2-.2-.4-.3-.7-.3-.2 0-.4.1-.6.2s-.4.2-.5.5v4.3h.3c.3 0 .5 0 .6.1.1.1.2.2.2.4s0 .4-.1.4c-.2.2-.3.2-.6.2H7.2c-.2 0-.4 0-.4-.1-.1-.1-.1-.2-.1-.4s.1-.4.2-.4.4-.1.7-.1h.2v-5h-.3c-.4 0-.6 0-.7-.1-.1-.1-.2-.2-.2-.4s.1-.3.2-.4c.1-.1.3-.1.5-.1h1.2c.2 0 .3 0 .3.1s.1.2.1.4c.2-.2.4-.4.7-.5.2-.1.5-.2.8-.2.4 0 .7.1.9.2.2.2.4.4.5.7.2-.3.5-.6.8-.7.3-.2.6-.2 1-.2.7 0 1.2.2 1.5.7s.5 1.1.5 2.1v3.5h.1c.3 0 .5 0 .6.1.1.1.2.2.2.4s0 .3-.1.4-.3 0-.5 0H15c-.2 0-.4-.1-.5-.2-.1-.1-.1-.3-.1-.6v-3.5zm8.8 4.3c-.1 0-.2 0-.2-.1s-.1-.2-.1-.3V25c-.3.4-.7.7-1.2.9s-1 .3-1.5.3c-1 0-1.8-.3-2.5-1.1-.7-.7-1-1.6-1-2.6 0-1.1.4-2 1.1-2.7.7-.7 1.6-1.1 2.6-1.1.5 0 1 .1 1.4.3.4.2.8.5 1.1.8v-3h-.4c-.5 0-.7 0-.9-.1-.1-.1-.2-.2-.2-.4s.1-.3.2-.4c.1-.1.3-.1.5-.1h1.6c.2 0 .3 0 .3.1.1 0 .1.1.1.2v8.8h.4c.3 0 .4 0 .6.1s.2.2.2.4 0 .3-.1.4c-.2.2-.4.2-.5.2h-1.5zm-5.2-3.5c0 .7.2 1.3.7 1.8.5.5 1.1.7 1.8.7s1.3-.2 1.8-.7c.5-.5.7-1.1.7-1.8s-.2-1.3-.7-1.8-1.1-.7-1.8-.7-1.3.2-1.8.7-.7 1-.7 1.8z" style="fill:#fff"/>
</svg>
