<svg xmlns="http://www.w3.org/2000/svg" viewBox="0 0 32 32" style="enable-background:new 0 0 32 32" xml:space="preserve">
  <linearGradient id="a" gradientUnits="userSpaceOnUse" x1="16" y1="2" x2="16" y2="30">
    <stop offset=".15" style="stop-color:#2a4f84"/>
    <stop offset=".388" style="stop-color:#294e82"/>
    <stop offset="1" style="stop-color:#172e4e"/>
  </linearGradient>
  <path d="M28 27c0 1.65-1.35 3-3 3H7c-1.65 0-3-1.35-3-3V5c0-1.65 1.35-3 3-3h18c1.65 0 3 1.35 3 3v22z" style="fill:url(#a)"/>
  <path d="M22.559 21.923a1.55 1.55 0 0 1 1.24 1.486 1.33 1.33 0 0 1-.513 1.1 2.31 2.31 0 0 1-1.463.439 3.576 3.576 0 0 1-1.761-.486 1.57 1.57 0 0 1 .126-.526c.063-.167.156-.32.275-.453a2.9 2.9 0 0 0 1.296.387.756.756 0 0 0 .401-.088.267.267 0 0 0 .14-.236c0-.185-.143-.323-.429-.416l-.513-.194c-.776-.283-1.164-.744-1.164-1.384a1.377 1.377 0 0 1 .489-1.112 2.028 2.028 0 0 1 1.318-.509c.305.004.608.043.904.115.285.089.557.214.811.371.008.194-.026.388-.102.567a.955.955 0 0 1-.299.438 3.348 3.348 0 0 0-1.304-.35.423.423 0 0 0-.284.083.267.267 0 0 0-.097.212c0 .148.118.265.354.35l.578.203-.003.003zm-4.124 0a1.55 1.55 0 0 1 1.239 1.486 1.33 1.33 0 0 1-.512 1.1 2.31 2.31 0 0 1-1.463.439 3.576 3.576 0 0 1-1.761-.486c.011-.181.053-.359.126-.526.063-.167.156-.32.275-.453a2.9 2.9 0 0 0 1.296.387.756.756 0 0 0 .401-.088.269.269 0 0 0 .14-.236c0-.185-.143-.323-.429-.416l-.513-.194c-.776-.283-1.164-.744-1.164-1.384a1.377 1.377 0 0 1 .489-1.112 2.028 2.028 0 0 1 1.318-.509c.305.004.608.043.904.115.285.089.557.214.811.371.008.194-.026.388-.102.567a.955.955 0 0 1-.299.438 3.357 3.357 0 0 0-1.305-.35.423.423 0 0 0-.284.083.267.267 0 0 0-.097.212c0 .148.118.265.354.35-.002.002.576.206.576.206zm-3.014.065a2.219 2.219 0 0 0-.135-.786 1.75 1.75 0 0 0-.387-.618 1.792 1.792 0 0 0-.61-.406 2.16 2.16 0 0 0-.806-.247 2.185 2.185 0 0 0-.927.284 1.76 1.76 0 0 0-.652.508 2.168 2.168 0 0 0-.383.761 3.466 3.466 0 0 0-.126.955c-.003.332.031.663.102.988.06.284.179.551.35.786.167.223.388.401.643.516.308.144.643.218.983.218a3.11 3.11 0 0 0 1.826-.559 1.467 1.467 0 0 0-.38-.849 4.795 4.795 0 0 1-.673.206 2.553 2.553 0 0 1-.515.062.797.797 0 0 1-.64-.228.932.932 0 0 1-.213-.605H15.3c.086-.322.127-.654.121-.986zm-2.552.063a1.92 1.92 0 0 1 .171-.786.496.496 0 0 1 .439-.207.517.517 0 0 1 .457.222c.107.208.16.439.152.673v.102h-1.22v-.004zm13.485.618c-.28.252-.433.617-.416.994v1.611c.036.472-.165.93-.537 1.223a2.2 2.2 0 0 1-1.299.431h-.293v-.808a.976.976 0 0 0 .467-.262c.223-.214.343-.514.329-.823v-1.302a1.997 1.997 0 0 1 .202-1.039 1.96 1.96 0 0 1 .943-.658 1.984 1.984 0 0 1-1.04-.926 2.326 2.326 0 0 1-.106-.915v-1.193a1.144 1.144 0 0 0-.288-.828.903.903 0 0 0-.509-.247v-.754h.729c.3.021.583.143.804.347.254.203.439.48.529.793.05.179.073.364.068.55v1.38c-.025.401.117.794.393 1.087.191.176.421.305.671.376v.624c-.239.058-.46.173-.644.335l-.003.004zm-18.53-5.495h-.263a1.32 1.32 0 0 0-.804.347 1.348 1.348 0 0 0-.529.793 2.812 2.812 0 0 0-.03.55v1.38a1.47 1.47 0 0 1-.428 1.089c-.23.174-.491.301-.77.375v.623c.268.059.522.173.744.335.291.248.457.612.453.994v1.611a1.4 1.4 0 0 0 .5 1.224c.376.279.831.43 1.299.432h.331v-.806a1.156 1.156 0 0 1-.505-.262 1.065 1.065 0 0 1-.291-.823v-1.301a1.97 1.97 0 0 0-.24-1.039 1.96 1.96 0 0 0-.943-.658 1.988 1.988 0 0 0 1.04-.926c.111-.292.16-.604.144-.915v-1.193a1.147 1.147 0 0 1 .249-.828c.131-.107.286-.18.452-.213h.336v-.788h-.745zm3.098 6.539h-.252c-.273 0-.376-.144-.376-.433v-5.31a.987.987 0 0 0-.211-.673c-.118-.128-.323-.127-.615-.127h-.635v6.369a1.47 1.47 0 0 0 .277.974c.24.23.569.343.9.309.334-.004.668-.035.997-.093.025-.132.034-.266.028-.4a1.784 1.784 0 0 0-.112-.614l-.001-.002z" style="fill:#fff"/>
</svg>
