<svg xmlns="http://www.w3.org/2000/svg" xml:space="preserve" style="enable-background:new 0 0 32 32" viewBox="0 0 32 32">
  <path d="M28 27c0 1.6-1.4 3-3 3H7c-1.7 0-3-1.4-3-3V5c0-1.7 1.3-3 3-3h18c1.6 0 3 1.3 3 3v22z" style="fill:#40535b"/>
  <path d="m22.3 25.2.5-.5c2.1.1 2.1 0 2.2-.2l.6-1.4v-.2c0-.1-.1-.2-1.4-1.5v-.7c1.5-1.5 1.5-1.5 1.4-1.8l-.6-1.4c-.1-.2-.1-.3-2.2-.2l-.5-.5c0-.7 0-1.4-.1-2.1l-.1-.1-1.5-.7c-.2-.1-.3-.1-1.7 1.4h-.6c-1.5-1.6-1.5-1.5-1.8-1.4l-1.4.6c-.2.1-.3.1-.2 2.2l-.5.5c-2.1-.1-2.1 0-2.2.2l-.6 1.4v.2c0 .1.1.2 1.4 1.5v.7c-1.5 1.5-1.5 1.5-1.4 1.8l.6 1.4c.1.2.1.3 2.2.2l.5.5c0 .7 0 1.4.1 2.1l.1.1 1.5.7c.2.1.3.1 1.7-1.4h.6c1.5 1.6 1.5 1.5 1.8 1.4l1.4-.6c.2-.1.3-.1.2-2.2zm-6-3.4c-.5-1.3.2-2.7 1.4-3.2s2.7.2 3.2 1.4c.5 1.3-.1 2.7-1.4 3.2-1.2.6-2.7-.1-3.2-1.4z" style="fill:#fff"/>
</svg>
