<svg xmlns="http://www.w3.org/2000/svg" viewBox="0 0 32 32">
  <path d="M2.73 6.67 15.85 2v28L4.77 23.88Z" style="fill:#de3641"/>
  <path d="m15.85 2 13.42 4.59-2.19 17.21L15.85 30Z" style="fill:#b13138"/>
  <path d="m15.85 5.14 8.53 18.23h-2.91l-1.82-4.16h-3.8v-2.48h2.77L15.85 11l-2.33 5.73h2.33v2.48h-3.47l-1.63 4.16H7.61Z" style="fill:#fff"/>
  <path style="fill:#e44f26" d="m18.69 28.21-1.11-12.47H29.8l-1.11 12.47-5.01 1.39-4.99-1.39z"/>
  <path style="fill:#f1662a" d="m23.69 28.54 4.05-1.12.95-10.66h-5v11.78z"/>
  <path style="fill:#ebebeb" d="M23.69 21.39h-2.02l-.14-1.57h2.16v-1.53h-3.84l.04.41.38 4.22h3.42v-1.53zm0 3.97h-.01l-1.7-.46-.11-1.22h-1.53l.21 2.4 3.13.87h.01v-1.59z"/>
  <path style="fill:#fff" d="M23.69 21.39v1.53h1.88l-.18 1.98-1.7.46v1.59l3.13-.87.03-.26.35-4.02.04-.41h-3.55zm0-3.1v1.53h3.69l.03-.35.07-.77.04-.41h-3.83z"/>
</svg>
