<svg xmlns="http://www.w3.org/2000/svg" xml:space="preserve" id="Layer_1" x="0" y="0" style="enable-background:new 0 0 32 32" version="1.1" viewBox="0 0 32 32">
  <style>
    .st1{fill:#56b3b4}.st2{fill:#ea5e5e}.st3{fill:#bf85bf}.st4{fill:#f7ba3e}.st5{opacity:.5;fill:#d0d4d8;enable-background:new}
  </style>
  <path d="M28 27c0 1.6-1.4 3-3 3H7c-1.7 0-3-1.4-3-3V5c0-1.7 1.3-3 3-3h18c1.6 0 3 1.3 3 3v22z" style="fill:#2d3a45"/>
  <g id="Page-1">
    <g id="prettier-icon-light">
      <g id="Icon-_Light_">
        <g id="Group">
          <path id="Rectangle_00000123426462507671879230000002672120707000221317_" d="M20.3 12.5h.9c.2 0 .4.2.4.4s-.2.4-.4.4h-.9c-.2 0-.4-.2-.4-.4s.1-.4.4-.4z" class="st1"/>
          <path id="Rectangle-2_00000057142181843590949020000016935326526037843098_" d="M7.4 26.2h4.3c.2 0 .4.2.4.4s-.2.4-.4.4H7.4c-.2 0-.4-.2-.4-.4s.2-.4.4-.4z" class="st2"/>
          <path id="Rectangle-3_00000137826338247294517550000010615183784214641792_" d="M17.7 19.4h2.6c.2 0 .4.2.4.4s-.2.4-.4.4h-2.6c-.2 0-.4-.2-.4-.4s.2-.4.4-.4z" class="st3"/>
          <path id="Rectangle-4_00000075147193558486761890000017831433340645184162_" d="M12.6 19.4H16c.2 0 .4.2.4.4s-.2.4-.4.4h-3.4c-.2 0-.4-.2-.4-.4-.1-.2.1-.4.4-.4z" class="st2"/>
          <path id="Rectangle-5_00000121977441784413390720000003031947799373564317_" d="M7.4 19.4h3.4c.2 0 .4.2.4.4s-.2.4-.4.4H7.4c-.2 0-.4-.2-.4-.4s.2-.4.4-.4z" class="st1"/>
          <path id="Rectangle-6_00000085973190224184394980000003197040469929217160_" d="M7.4 22.8h4.3c.2 0 .4.2.4.4s-.2.4-.4.4H7.4c-.2 0-.4-.2-.4-.4s.2-.4.4-.4z" class="st3"/>
          <path id="Rectangle-7_00000139976136794169522940000011733988097004798911_" d="M7.4 16h4.3c.2 0 .4.2.4.4s-.2.4-.4.4H7.4c-.2 0-.4-.2-.4-.4 0-.3.2-.4.4-.4z" class="st3"/>
          <path id="Rectangle-8_00000159465334252960736850000007803439401606658208_" d="M11.7 10.8h8.6c.2 0 .4.2.4.4s-.2.4-.4.4h-8.6c-.2 0-.4-.2-.4-.4s.2-.4.4-.4z" class="st4"/>
          <path id="Rectangle-9_00000109725174160546595420000015289849554025143718_" d="M7.4 10.8H10c.2 0 .4.2.4.4s-.2.4-.4.4H7.4c-.2 0-.4-.2-.4-.4s.2-.4.4-.4z" class="st2"/>
          <path id="Rectangle-10_00000115485792632662306970000003277933839247911084_" d="M10.9 24.5h.9c.2 0 .4.2.4.4s-.2.4-.4.4h-.9c-.2 0-.4-.2-.4-.4-.1-.2.1-.4.4-.4z" class="st4"/>
          <path id="Rectangle-11_00000137106266066070334620000000531683572656222850_" d="M10.9 14.2h.9c.2 0 .4.2.4.4s-.2.4-.4.4h-.9c-.2 0-.4-.2-.4-.4-.1-.2.1-.4.4-.4z" class="st1"/>
          <path id="Rectangle-12_00000058566251763710095770000009120754523272207286_" d="M7.4 24.5h1.7c.2 0 .4.2.4.4s-.2.4-.4.4H7.4c-.2.1-.4-.1-.4-.3 0-.3.2-.5.4-.5z" class="st1"/>
          <path id="Rectangle-13_00000127761447586663659390000003921987419830977412_" d="M7.4 14.2h1.7c.2 0 .4.2.4.4s-.2.4-.4.4H7.4c-.2 0-.4-.2-.4-.4s.2-.4.4-.4z" class="st4"/>
          <path id="Rectangle-14_00000170260975241944697520000016363722938912045232_" d="M18.6 24.5h.9c.2 0 .4.2.4.4s-.2.4-.4.4h-.9c-.2 0-.4-.2-.4-.4-.1-.2.1-.4.4-.4z" class="st5"/>
          <path id="Rectangle-15_00000111170625344092048940000009879612998556429739_" d="M13.4 24.5h3.4c.2 0 .4.2.4.4s-.2.4-.4.4h-3.4c-.2 0-.4-.2-.4-.4s.2-.4.4-.4z" class="st5"/>
          <path id="Rectangle-16_00000137827853718446298250000009991545355732355458_" d="M21.1 24.5h3.4c.2 0 .4.2.4.4s-.2.4-.4.4h-3.4c-.2 0-.4-.2-.4-.4s.2-.4.4-.4z" class="st5"/>
          <path id="Rectangle-17_00000139990157073287319590000007636531018715453342_" d="M14.3 17.7h6.9c.2 0 .4.2.4.4s-.2.4-.4.4h-6.9c-.2 0-.4-.2-.4-.4s.1-.4.4-.4z" class="st1"/>
          <path id="Rectangle-18_00000084526354282197237270000010492435112094623924_" d="M10 17.7h2.6c.2 0 .4.2.4.4s-.2.4-.4.4H10c-.2 0-.4-.2-.4-.4s.2-.4.4-.4z" class="st4"/>
          <path id="Rectangle-19_00000105405226071072297280000006353113913809579682_" d="M7.4 17.7h.9c.2 0 .4.2.4.4s-.2.4-.4.4h-.9c-.2 0-.4-.2-.4-.4s.2-.4.4-.4z" class="st2"/>
          <path id="Rectangle-20_00000035492779745399874410000015284786679171983012_" d="M15.1 12.5h3.4c.2 0 .4.2.4.4s-.2.4-.4.4h-3.4c-.2 0-.4-.2-.4-.4s.2-.4.4-.4z" class="st3"/>
          <path id="Rectangle-21_00000042004663397869991140000004061591701555169725_" d="M7.4 12.5h6c.2 0 .4.2.4.4s-.2.4-.4.4h-6c-.2.1-.4-.1-.4-.3 0-.3.2-.5.4-.5z" class="st1"/>
          <path id="Rectangle-22_00000137833184434068489970000012472163296393398461_" d="M10 21.1h7.7c.2 0 .4.2.4.4s-.2.4-.4.4H10c-.2 0-.4-.2-.4-.4s.2-.4.4-.4z" class="st4"/>
          <path id="Rectangle-23_00000060743798753190899890000017502866670328836013_" d="M7.4 21.1h.9c.2 0 .4.2.4.4s-.2.4-.4.4h-.9c-.2.1-.4-.1-.4-.4 0-.2.2-.4.4-.4z" class="st3"/>
          <path id="Rectangle-24_00000098923227786381219910000011550744299503838854_" d="M17.7 14.2H22c.2 0 .4.2.4.4s-.2.4-.4.4h-4.3c-.2 0-.4-.2-.4-.4s.2-.4.4-.4z" class="st2"/>
          <path id="Rectangle-25_00000049916536476014624120000007194506659494394507_" d="M17.7 16H22c.2 0 .4.2.4.4s-.2.4-.4.4h-4.3c-.2 0-.4-.2-.4-.4 0-.3.2-.4.4-.4z" class="st4"/>
          <path id="Rectangle-26_00000095319667320509911450000008248765419757557383_" d="M7.4 9.1h10.3c.2 0 .4.2.4.4s-.2.4-.4.4H7.4c-.2.1-.4-.1-.4-.4 0-.2.2-.4.4-.4z" class="st1"/>
          <path id="Rectangle-27_00000021094903110084218650000017391846527962370689_" d="M19.4 9.1h5.1c.2 0 .4.2.4.4s-.2.4-.4.4h-5.1c-.2.1-.4-.1-.4-.4 0-.2.2-.4.4-.4z" class="st5"/>
          <path id="Rectangle-28_00000071555797118855655750000011084056134451775365_" d="M19.4 21.1h1.7c.2 0 .4.2.4.4s-.2.4-.4.4h-1.7c-.2 0-.4-.2-.4-.4s.2-.4.4-.4z" class="st5"/>
          <path id="Rectangle-29_00000119087826492020236070000003178991503268517762_" d="M22.9 21.1h1.7c.2 0 .4.2.4.4s-.2.4-.4.4h-1.7c-.2 0-.4-.2-.4-.4-.1-.2.1-.4.4-.4z" class="st5"/>
          <path id="Rectangle-30_00000116953012180838768480000007868228641615727800_" d="M22 19.4h2.6c.2 0 .4.2.4.4s-.2.4-.4.4H22c-.2 0-.4-.2-.4-.4s.2-.4.4-.4z" class="st5"/>
          <path id="Rectangle-31_00000142154840035941247540000000384036811264485000_" d="M22 10.8h2.6c.2 0 .4.2.4.4s-.2.4-.4.4H22c-.2 0-.4-.2-.4-.4s.2-.4.4-.4z" class="st5"/>
          <path id="Rectangle-32_00000018211542432615938320000000743715840790251660_" d="M22.9 17.7h1.7c.2 0 .4.2.4.4s-.2.4-.4.4h-1.7c-.2 0-.4-.2-.4-.4-.1-.2.1-.4.4-.4z" class="st5"/>
          <path id="Rectangle-33_00000064318499714132302570000009196285111586994572_" d="M22.9 12.5h1.7c.2 0 .4.2.4.4s-.2.4-.4.4h-1.7c-.2 0-.4-.2-.4-.4-.1-.2.1-.4.4-.4z" class="st5"/>
          <path id="Rectangle-34_00000152240197437069852070000014244337874096763068_" d="M23.7 14.2h.9c.2 0 .4.2.4.4s-.2.4-.4.4h-.9c-.2 0-.4-.2-.4-.4s.2-.4.4-.4z" class="st5"/>
          <path id="Rectangle-35_00000032647910488938696500000001575017580929810620_" d="M23.7 16h.9c.2 0 .4.2.4.4s-.2.4-.4.4h-.9c-.2 0-.4-.2-.4-.4 0-.3.2-.4.4-.4z" class="st5"/>
          <path id="Rectangle-36_00000177441980674382019340000011423779579487459473_" d="M16.9 22.8h7.7c.2 0 .4.2.4.4s-.2.4-.4.4h-7.7c-.2 0-.4-.2-.4-.4-.1-.2.1-.4.4-.4z" class="st5"/>
          <path id="Rectangle-37_00000106122180825793374620000016301669625840426910_" d="M13.4 22.8h1.7c.2 0 .4.2.4.4s-.2.4-.4.4h-1.7c-.2 0-.4-.2-.4-.4s.2-.4.4-.4z" class="st5"/>
          <path id="Rectangle-38_00000083796771251196294910000001553657789512245384_" d="M20.3 26.2h4.3c.2 0 .4.2.4.4s-.2.4-.4.4h-4.3c-.2 0-.4-.2-.4-.4s.1-.4.4-.4z" class="st5"/>
          <path id="Rectangle-39_00000148633312278389272810000016533954992309738113_" d="M13.4 26.2h5.1c.2 0 .4.2.4.4s-.2.4-.4.4h-5.1c-.2 0-.4-.2-.4-.4s.2-.4.4-.4z" class="st5"/>
          <path id="Rectangle-40_00000018198818858271698600000007900605310051568827_" d="M13.4 14.2H16c.2 0 .4.2.4.4s-.2.4-.4.4h-2.6c-.2 0-.4-.2-.4-.4s.2-.4.4-.4z" class="st5"/>
          <path id="Rectangle-41_00000151501785246847044670000015376615722151167138_" d="M13.4 16H16c.2 0 .4.2.4.4s-.2.4-.4.4h-2.6c-.2 0-.4-.2-.4-.4 0-.3.2-.4.4-.4z" class="st5"/>
        </g>
      </g>
    </g>
  </g>
</svg>
