<svg xmlns="http://www.w3.org/2000/svg" viewBox="0 0 32 32" style="enable-background:new 0 0 32 32" xml:space="preserve">
  <path d="M28 27c0 1.65-1.35 3-3 3H7c-1.65 0-3-1.35-3-3V5c0-1.65 1.35-3 3-3h18c1.65 0 3 1.35 3 3v22z" style="fill:#cd6799"/>
  <path d="M16.439 20.149c-.327.15-.686.346-1.403.74-.272.153-.556.306-.821.45-.018-.018-.037-.041-.056-.061-1.42-1.517-4.045-2.588-3.934-4.625.041-.742.297-2.69 5.042-5.056 3.906-1.925 7.013-1.392 7.55-.209.771 1.686-1.666 4.824-5.699 5.279a3.04 3.04 0 0 1-2.551-.645c-.214-.232-.246-.246-.324-.199-.13.068-.046.278 0 .399.311.563.836.976 1.456 1.145a7.752 7.752 0 0 0 4.731-.469c2.445-.946 4.353-3.576 3.794-5.782-.561-2.236-4.272-2.973-7.783-1.726a17.68 17.68 0 0 0-5.979 3.433c-1.934 1.809-2.241 3.382-2.115 4.04.45 2.338 3.673 3.859 4.965 4.986l-.176.097c-.645.32-3.103 1.605-3.716 2.964-.696 1.54.112 2.644.645 2.792a3.967 3.967 0 0 0 4.272-1.73 4.283 4.283 0 0 0 .38-3.945c.153-.122.316-.23.487-.324.329-.195.643-.386.921-.535a7.132 7.132 0 0 1 3.044-.673c2.208.26 2.644 1.637 2.56 2.217a1.467 1.467 0 0 1-.701.992c-.153.097-.204.13-.19.199.018.102.093.097.222.079a1.725 1.725 0 0 0 1.201-1.535c.068-1.36-1.229-2.853-3.525-2.839a5.28 5.28 0 0 0-2.301.535l.004.006zm-3.282 5.332c-.733.798-1.754 1.099-2.194.844-.476-.272-.288-1.452.612-2.296.533-.48 1.109-.91 1.721-1.285.107-.068.265-.158.454-.272l.051-.028.112-.068a3.167 3.167 0 0 1-.756 3.105z" style="fill:#fff"/>
</svg>
