<svg xmlns="http://www.w3.org/2000/svg" xml:space="preserve" style="enable-background:new 0 0 32 32" viewBox="0 0 32 32">
  <path d="M28 27c0 1.6-1.4 3-3 3H7c-1.7 0-3-1.4-3-3V5c0-1.7 1.3-3 3-3h18c1.6 0 3 1.3 3 3v22z" style="fill:#007055"/>
  <path d="M10.6 17.5h-3v-1.6h7.9v1.6h-3v8.9h-1.9v-8.9zm5.4 7.6 1.1-1.3c.8.7 1.8 1.2 2.7 1.2 1.2 0 1.8-.5 1.8-1.3 0-.9-.7-1.1-1.6-1.5l-1.4-.6c-1-.4-2.1-1.2-2.1-2.8 0-1.7 1.5-2.9 3.5-2.9 1.2 0 2.4.5 3.2 1.3l-.9 1.2c-.7-.6-1.4-.9-2.3-.9-1 0-1.6.5-1.6 1.2 0 .8.8 1.1 1.7 1.5l1.4.6c1.2.5 2.1 1.3 2.1 2.8 0 1.7-1.4 3.1-3.8 3.1-1.4-.1-2.8-.7-3.8-1.6z" style="fill:#fff"/>
</svg>
