<svg xmlns="http://www.w3.org/2000/svg" xml:space="preserve" style="enable-background:new 0 0 32 32" viewBox="0 0 32 32">
  <path d="M28 27c0 1.6-1.4 3-3 3H7c-1.7 0-3-1.4-3-3V5c0-1.7 1.3-3 3-3h18c1.6 0 3 1.3 3 3v22z" style="fill:#ffd8cc"/>
  <path d="M25.5 14.5c-1.6-2.2-4.6-2.8-6.9-1.4l-3.9 2.4c-1.1.6-1.8 1.7-2 2.9-.2 1 0 2 .5 3-.3.5-.6 1-.7 1.6-.2 1.2.1 2.5.8 3.5 1.6 2.2 4.6 2.8 6.9 1.4l3.9-2.4c1.1-.6 1.8-1.7 2-2.9.2-1 0-2.1-.5-3 .3-.5.6-1 .7-1.6.2-1.2-.1-2.5-.8-3.5" style="fill:#ff3e00"/>
  <path d="M18.2 26.7c-1.3.3-2.6-.2-3.3-1.2-.5-.6-.6-1.4-.5-2.1 0-.1.1-.2.1-.4l.1-.2.2.1c.5.3 1 .6 1.5.7h.1v.1c0 .2 0 .4.2.6.2.3.6.5 1 .4.1 0 .2-.1.2-.1l3.9-2.4c.2-.1.3-.3.4-.5 0-.2 0-.5-.1-.6-.2-.3-.6-.5-1-.4-.1 0-.2.1-.2.1l-1.5.9c-.2.2-.5.3-.8.3-1.3.3-2.6-.2-3.3-1.2-.4-.6-.6-1.4-.5-2.1.1-.7.6-1.4 1.2-1.8l3.9-2.4c.2-.2.5-.3.8-.3 1.3-.3 2.6.2 3.3 1.2.5.6.6 1.4.5 2.1 0 .1-.1.2-.1.4l-.1.2H24c-.5-.3-1-.6-1.5-.7h-.1v-.1c0-.2 0-.4-.2-.6-.2-.3-.6-.5-1-.4-.1 0-.2.1-.2.1l-4 2.3c-.2.1-.3.3-.4.5 0 .2 0 .5.1.6.2.3.6.5 1 .4.1 0 .2-.1.2-.1l1.5-.9c.2-.2.5-.3.8-.3 1.3-.3 2.6.2 3.3 1.2.4.6.6 1.4.5 2.1-.1.7-.6 1.4-1.2 1.8L19 26.4c-.3.1-.5.3-.8.3" style="fill:#fff"/>
</svg>
