<svg xmlns="http://www.w3.org/2000/svg" xml:space="preserve" id="Layer_1" x="0" y="0" style="enable-background:new 0 0 32 32" version="1.1" viewBox="0 0 32 32">
  <style>
    .st1{fill:#fff}
  </style>
  <path d="M28 27c0 1.6-1.4 3-3 3H7c-1.7 0-3-1.4-3-3V5c0-1.7 1.3-3 3-3h18c1.6 0 3 1.3 3 3v22z" style="fill:#00bcde"/>
  <circle cx="16" cy="18.6" r="1.6" class="st1"/>
  <path d="M16 22.3c-1.9 0-3.9-.2-5.7-.8-.9-.3-1.7-.7-2.4-1.3-.5-.4-.9-1-.9-1.7 0-1.1 1.2-2.1 3.1-2.8 1.9-.6 3.9-.9 5.9-.9 2 0 3.9.3 5.8.9.8.3 1.6.7 2.3 1.2.5.4.9 1 .9 1.6 0 1.1-1.3 2.2-3.4 2.9-1.8.6-3.7.9-5.6.9zm0-6.6c-1.9 0-3.8.3-5.6.8-1.8.6-2.6 1.5-2.6 2.1 0 .6.9 1.5 2.8 2.2 1.8.5 3.6.8 5.5.7 1.8 0 3.6-.2 5.4-.7 2-.7 2.9-1.6 2.9-2.2-.1-.4-.3-.8-.6-1-.6-.5-1.3-.8-2-1.1-2-.6-3.9-.8-5.8-.8z" class="st1"/>
  <path d="M12.3 26.6c-.3 0-.6-.1-.9-.2-.9-.5-1.2-2.1-.9-4.1.4-1.9 1.2-3.8 2.2-5.5 1-1.7 2.2-3.3 3.6-4.6.6-.6 1.4-1 2.2-1.4.6-.3 1.3-.3 1.9 0 1 .6 1.3 2.2.8 4.4-.4 1.8-1.2 3.6-2.1 5.2-.9 1.7-2.1 3.2-3.5 4.6-.7.6-1.4 1.1-2.3 1.4-.2.1-.6.2-1 .2zm1.2-9.5c-1 1.6-1.7 3.4-2.1 5.3-.4 1.9 0 3 .5 3.3.5.3 1.8 0 3.3-1.3 1.3-1.3 2.5-2.7 3.4-4.4.9-1.6 1.6-3.2 2-5 .4-2 .1-3.3-.5-3.6-.4-.1-.8-.1-1.2.1-.7.3-1.4.7-1.9 1.2-1.4 1.3-2.6 2.8-3.5 4.4z" class="st1"/>
  <path d="M19.6 26.6c-.9 0-2-.5-3.1-1.5-1.5-1.3-2.7-2.9-3.7-4.7-1-1.7-1.7-3.5-2.2-5.4-.2-.8-.2-1.7-.1-2.6.1-.6.4-1.2.9-1.6 1-.6 2.6 0 4.2 1.5 1.4 1.3 2.5 2.8 3.5 4.5 1 1.6 1.7 3.4 2.2 5.3.2.9.2 1.8.1 2.7-.1.7-.4 1.3-1 1.6-.2.1-.5.2-.8.2zM13.5 20c.9 1.7 2.1 3.2 3.5 4.5 1.4 1.2 2.6 1.5 3.1 1.2.5-.3.9-1.5.5-3.5-.4-1.8-1.1-3.5-2.1-5.1-.9-1.6-2-3-3.3-4.3-1.6-1.4-2.8-1.7-3.3-1.4-.3.3-.5.7-.5 1.1-.1.8-.1 1.5.1 2.3.3 1.9 1 3.6 2 5.2z" class="st1"/>
</svg>
