<svg xmlns="http://www.w3.org/2000/svg" viewBox="0 0 32 32" style="enable-background:new 0 0 32 32" xml:space="preserve">
  <path d="M28 27c0 1.6-1.4 3-3 3H7c-1.7 0-3-1.4-3-3V5c0-1.7 1.3-3 3-3h18c1.6 0 3 1.3 3 3v22z" style="fill:#3178c6"/>
  <path style="fill:#dd0031" d="M16 6.6 6 10.1l1.5 13.2L16 28l8.5-4.7L26 10.1z"/>
  <path style="fill:#c3002f" d="M16 6.6V28l8.5-4.7L26 10.1z"/>
  <path d="m16 8.9-6.3 14H12l1.3-3.1h5.3l1.3 3.1h2.3L16 8.9zm1.8 9h-3.7l1.8-4.4 1.9 4.4z" style="fill:#fff"/>
</svg>
